<?xml version="1.0" encoding="utf-8"?>
<svg width="800px" height="800px" viewBox="0 0 24 24" fill="none" xmlns="http://www.w3.org/2000/svg">
  <path fill-rule="evenodd" clip-rule="evenodd" d="M 10.26 20.701 C 10.26 21.662 11.039 22.441 12 22.441 C 12.961 22.441 13.74 21.662 13.74 20.701 L 13.74 13.74 L 20.701 13.74 C 21.662 13.74 22.441 12.961 22.441 12 C 22.441 11.039 21.662 10.26 20.701 10.26 L 13.74 10.26 L 13.74 3.299 C 13.74 2.338 12.961 1.559 12 1.559 C 11.039 1.559 10.26 2.338 10.26 3.299 L 10.26 10.26 L 3.299 10.26 C 2.338 10.26 1.559 11.039 1.559 12 C 1.559 12.961 2.338 13.74 3.299 13.74 L 10.26 13.74 L 10.26 20.701 Z" fill="#ffa200" style=""/>
</svg>