<?xml version="1.0" encoding="UTF-8"?>
<svg id="uuid-13974d7f-383e-46b2-9ba0-912e67f9408f" data-name="Layer 2" xmlns="http://www.w3.org/2000/svg" viewBox="0 0 512 512">
  <defs>
    <style>
      .uuid-2bd62720-4072-4be5-8ee7-1d693383bdd5 {
        fill: #ffa000;
      }

      .uuid-2bd62720-4072-4be5-8ee7-1d693383bdd5, .uuid-e53b3791-61d6-4951-a0f3-cc881441f400 {
        stroke-width: 0px;
      }

      .uuid-e53b3791-61d6-4951-a0f3-cc881441f400 {
        fill: #fff;
      }
    </style>
  </defs>
  <g id="uuid-76449dda-2462-4f0b-b3e1-befd367d543a" data-name="Layer 1">
    <g>
      <circle class="uuid-2bd62720-4072-4be5-8ee7-1d693383bdd5" cx="256" cy="256" r="256"/>
      <circle class="uuid-e53b3791-61d6-4951-a0f3-cc881441f400" cx="175.23" cy="143.67" r="32.59"/>
      <g>
        <path class="uuid-e53b3791-61d6-4951-a0f3-cc881441f400" d="M348.01,228.64v46.46c0,4.23-4.52,8.19-12.44,11.62-16.06,6.94-46.11,11.62-80.49,11.62s-64.43-4.68-80.49-11.62c-7.91-3.42-12.44-7.39-12.44-11.62v-46.46c0,4.23,4.52,8.19,12.44,11.62,16.06,6.94,46.11,11.62,80.49,11.62s64.43-4.68,80.49-11.62c7.91-3.42,12.44-7.39,12.44-11.62Z"/>
        <path class="uuid-e53b3791-61d6-4951-a0f3-cc881441f400" d="M348.01,288v46.46c0,4.23-4.52,8.19-12.44,11.62-16.06,6.94-46.11,11.62-80.49,11.62s-64.43-4.68-80.49-11.62c-7.91-3.42-12.44-7.39-12.44-11.62v-46.46c0,4.23,4.52,8.19,12.44,11.62,16.06,6.94,46.11,11.62,80.49,11.62s64.43-4.68,80.49-11.62c7.91-3.42,12.44-7.39,12.44-11.62Z"/>
        <path class="uuid-e53b3791-61d6-4951-a0f3-cc881441f400" d="M348.01,347.37v46.46c0,4.23-4.52,8.19-12.44,11.62-16.06,6.94-46.11,11.62-80.49,11.62s-64.43-4.68-80.49-11.62c-7.91-3.42-12.44-7.39-12.44-11.62v-46.46c0,4.23,4.52,8.19,12.44,11.62,16.06,6.94,46.11,11.62,80.49,11.62s64.43-4.68,80.49-11.62c7.91-3.42,12.44-7.39,12.44-11.62Z"/>
        <path class="uuid-e53b3791-61d6-4951-a0f3-cc881441f400" d="M348.01,215.74c0,4.23-4.52,8.19-12.43,11.61-16.07,6.94-46.11,11.62-80.5,11.62s-64.43-4.68-80.49-11.62c-7.91-3.42-12.44-7.38-12.44-11.61,0-12.83,41.61-23.23,92.93-23.23,2.17,0,4.32.02,6.45.06-3.73,11.08-6.1,23.53-6.56,37.47,7.97-14.85,17.46-26.85,27.42-36.51,38,2.91,65.62,11.76,65.62,22.21Z"/>
      </g>
      <path class="uuid-e53b3791-61d6-4951-a0f3-cc881441f400" d="M358.33,107.67v46.46s-40.85,5.29-75.94,39.4c-6.67-.51-13.65-.84-20.86-.96,22.85-67.92,96.8-84.9,96.8-84.9Z"/>
    </g>
  </g>
</svg>